<?xml version="1.0" standalone="no"?>
<svg xmlns:xlink="http://www.w3.org/1999/xlink" id="wave" style="transform:rotate(180deg); transition: 0.3s" viewBox="0 0 1440 140" version="1.1" xmlns="http://www.w3.org/2000/svg"><defs><linearGradient id="sw-gradient-0" x1="0" x2="0" y1="1" y2="0"><stop stop-color="rgba(255, 249, 234, 1)" offset="0%"/><stop stop-color="rgba(255, 249, 234, 1)" offset="100%"/></linearGradient></defs><path style="transform:translate(0, 0px); opacity:1" fill="url(#sw-gradient-0)" d="M0,0L34.3,2.3C68.6,5,137,9,206,14C274.3,19,343,23,411,32.7C480,42,549,56,617,56C685.7,56,754,42,823,46.7C891.4,51,960,75,1029,70C1097.1,65,1166,33,1234,35C1302.9,37,1371,75,1440,95.7C1508.6,117,1577,121,1646,105C1714.3,89,1783,51,1851,49C1920,47,1989,79,2057,84C2125.7,89,2194,65,2263,46.7C2331.4,28,2400,14,2469,25.7C2537.1,37,2606,75,2674,91C2742.9,107,2811,103,2880,91C2948.6,79,3017,61,3086,49C3154.3,37,3223,33,3291,42C3360,51,3429,75,3497,88.7C3565.7,103,3634,107,3703,112C3771.4,117,3840,121,3909,119C3977.1,117,4046,107,4114,102.7C4182.9,98,4251,98,4320,102.7C4388.6,107,4457,117,4526,107.3C4594.3,98,4663,70,4731,70C4800,70,4869,98,4903,112L4937.1,126L4937.1,140L4902.9,140C4868.6,140,4800,140,4731,140C4662.9,140,4594,140,4526,140C4457.1,140,4389,140,4320,140C4251.4,140,4183,140,4114,140C4045.7,140,3977,140,3909,140C3840,140,3771,140,3703,140C3634.3,140,3566,140,3497,140C3428.6,140,3360,140,3291,140C3222.9,140,3154,140,3086,140C3017.1,140,2949,140,2880,140C2811.4,140,2743,140,2674,140C2605.7,140,2537,140,2469,140C2400,140,2331,140,2263,140C2194.3,140,2126,140,2057,140C1988.6,140,1920,140,1851,140C1782.9,140,1714,140,1646,140C1577.1,140,1509,140,1440,140C1371.4,140,1303,140,1234,140C1165.7,140,1097,140,1029,140C960,140,891,140,823,140C754.3,140,686,140,617,140C548.6,140,480,140,411,140C342.9,140,274,140,206,140C137.1,140,69,140,34,140L0,140Z"/></svg>